<svg width="25" height="24" viewBox="0 0 25 24" fill="none" xmlns="http://www.w3.org/2000/svg">
<path d="M12.5 22C18.0229 22 22.5 17.5229 22.5 12C22.5 6.47715 18.0229 2 12.5 2C6.97715 2 2.5 6.47715 2.5 12C2.5 17.5229 6.97715 22 12.5 22Z" fill="#FFC061"/>
<path fill-rule="evenodd" clip-rule="evenodd" d="M13.5 7.5C13.5 6.94772 13.0523 6.5 12.5 6.5C11.9477 6.5 11.5 6.94772 11.5 7.5V13.5C11.5 14.0523 11.9477 14.5 12.5 14.5C13.0523 14.5 13.5 14.0523 13.5 13.5L13.5 7.5ZM12.6 17.6C13.1523 17.6 13.6 17.1523 13.6 16.6C13.6 16.0477 13.1523 15.6 12.6 15.6C12.0477 15.6 11.6 16.0477 11.6 16.6C11.6 17.1523 12.0477 17.6 12.6 17.6Z" fill="white"/>
</svg>
